<svg width="23" height="16" viewBox="0 0 23 16" fill="none" xmlns="http://www.w3.org/2000/svg">
<path d="M8.238 3.19137C10.0176 3.19137 11.7987 3.20257 13.5783 3.18657C14.5216 3.17858 14.9677 3.58469 14.9581 4.55362C14.9357 6.7329 14.9645 8.91216 14.9453 11.0914C14.9341 12.313 14.4465 12.7671 13.2057 12.7687C9.79052 12.7735 6.37691 12.7735 2.96169 12.7655C1.74814 12.7623 1.01106 12.0348 1.00466 10.834C0.993471 8.87219 0.996674 6.91037 1.00147 4.95015C1.00466 3.67743 1.47474 3.20257 2.78902 3.18977C4.60535 3.17218 6.42167 3.18498 8.238 3.18498V3.19138V3.19137ZM8.0941 11.9197C9.80171 11.9197 11.5109 11.8989 13.2185 11.9293C13.8661 11.9404 14.1283 11.7358 14.1139 11.0595C14.0787 9.4254 14.1091 7.78815 14.0931 6.15251C14.0915 5.88548 14.2402 5.51774 13.898 5.37385C13.5863 5.24274 13.388 5.53213 13.1626 5.7128C11.6484 6.92155 10.1055 8.09674 8.61533 9.33427C8.12288 9.74358 7.8095 9.72919 7.32983 9.33268C5.81249 8.07435 4.25039 6.87199 2.72027 5.62807C2.51561 5.46179 2.32374 5.25713 2.06952 5.32907C1.74014 5.42341 1.86327 5.75438 1.86166 5.98621C1.85047 7.54832 1.88244 9.11202 1.85047 10.6741C1.83288 11.5567 2.21822 11.9293 3.08 11.9213C4.74924 11.9085 6.42167 11.9181 8.0941 11.9197ZM2.17985 4.10433C2.49002 4.39054 2.58596 4.49126 2.69469 4.57762C3.64602 5.33227 4.58936 6.09654 5.55188 6.83362C8.04933 8.74749 8.05572 8.74749 10.5004 6.80005C11.5381 5.97343 12.555 5.12282 13.8005 4.10274C9.80971 4.10433 6.13547 4.10433 2.17985 4.10433Z" fill="#C4C0C0"/>
<rect x="22" y="2" width="1" height="12" fill="#C4C0C0"/>
</svg>
