<svg width="17" height="17" viewBox="0 0 17 17" fill="none" xmlns="http://www.w3.org/2000/svg">
<path d="M10.4697 5.78565C10.4693 6.22111 10.822 6.57446 11.2575 6.57489C11.6929 6.57532 12.0463 6.22255 12.0466 5.78718V5.78565C12.0466 5.57654 11.9636 5.37599 11.8157 5.22813C11.6678 5.08026 11.4673 4.99719 11.2582 4.99719C11.0491 4.99719 10.8485 5.08026 10.7006 5.22813C10.5528 5.37599 10.4697 5.57654 10.4697 5.78565Z" fill="#939393"/>
<path d="M2.36826 14.5879V11.6126L6.74644 7.23438L6.73608 7.18253C6.68443 6.92449 6.65835 6.66199 6.65822 6.39884C6.65822 4.20047 8.4467 2.41199 10.645 2.41199C12.8432 2.41199 14.6315 4.20047 14.6315 6.39875C14.6315 8.59693 12.8432 10.3853 10.645 10.3853C10.2216 10.3853 9.80373 10.3182 9.40219 10.1859L9.27256 10.1432V10.1844H8.78491V11.6219H7.36549V13.0592H5.92808V14.5877H2.36826V14.5879ZM10.645 3.27693C8.92363 3.27693 7.52317 4.67739 7.52317 6.39874C7.52311 6.63194 7.54915 6.86441 7.60079 7.09182C7.66454 7.3724 7.61286 7.59144 7.44276 7.76144L3.23323 11.9708V13.7229H5.06294V12.1944H6.50037V10.7571H7.9197V9.50711C8.08613 9.45595 8.53562 9.33064 8.94046 9.33064C9.06788 9.33064 9.18059 9.34306 9.27545 9.36779C9.85463 9.51807 10.6128 9.52046 10.6448 9.52046C12.3661 9.52046 13.7665 8.12009 13.7665 6.39884C13.7667 4.67732 12.3663 3.27695 10.645 3.27695V3.27693Z" fill="#939393"/>
</svg>
