<svg width="20" height="17" viewBox="0 0 20 17" fill="none" xmlns="http://www.w3.org/2000/svg">
<path d="M10.4697 5.78565C10.4693 6.22111 10.822 6.57446 11.2575 6.57489C11.693 6.57532 12.0463 6.22255 12.0466 5.78718V5.78565C12.0466 5.57654 11.9636 5.37599 11.8157 5.22813C11.6678 5.08026 11.4673 4.99719 11.2582 4.99719C11.0491 4.99719 10.8485 5.08026 10.7007 5.22813C10.5528 5.37599 10.4697 5.57654 10.4697 5.78565Z" fill="#C4C0C0"/>
<path d="M2.36816 14.5879V11.6126L6.74634 7.23438L6.73599 7.18253C6.68434 6.92449 6.65826 6.66199 6.65812 6.39884C6.65812 4.20047 8.44661 2.41199 10.645 2.41199C12.8432 2.41199 14.6315 4.20047 14.6315 6.39875C14.6315 8.59693 12.8431 10.3853 10.645 10.3853C10.2215 10.3853 9.80364 10.3182 9.4021 10.1859L9.27247 10.1432V10.1844H8.78482V11.6219H7.3654V13.0592H5.92799V14.5877H2.36816V14.5879ZM10.645 3.27693C8.92354 3.27693 7.52308 4.67739 7.52308 6.39874C7.52302 6.63194 7.54906 6.86441 7.60069 7.09182C7.66444 7.3724 7.61276 7.59144 7.44266 7.76144L3.23314 11.9708V13.7229H5.06285V12.1944H6.50028V10.7571H7.91961V9.50711C8.08604 9.45595 8.53553 9.33064 8.94037 9.33064C9.06779 9.33064 9.1805 9.34306 9.27536 9.36779C9.85454 9.51807 10.6127 9.52046 10.6447 9.52046C12.366 9.52046 13.7664 8.12009 13.7664 6.39884C13.7666 4.67732 12.3662 3.27695 10.645 3.27695V3.27693Z" fill="#C4C0C0"/>
<rect x="19" y="2" width="1" height="12" fill="#C4C0C0"/>
</svg>
