<svg width="1720" height="480" viewBox="0 0 1720 480" fill="none" xmlns="http://www.w3.org/2000/svg">
<path fill-rule="evenodd" clip-rule="evenodd" d="M1697 23H23V457H1697V23ZM0 0V480H1720V0H0Z" fill="#D2DCF0"/>
<path d="M46 45H881V435H46V45Z" fill="#D2DCF0"/>
<path d="M846.679 204.728V292H836.452L788.895 223.478H788.043V292H777.475V204.728H787.702L835.429 273.421H836.281V204.728H846.679Z" fill="white"/>
<path d="M759.705 248.364C759.705 257.568 758.043 265.523 754.719 272.227C751.395 278.932 746.835 284.102 741.04 287.739C735.244 291.375 728.625 293.193 721.182 293.193C713.739 293.193 707.119 291.375 701.324 287.739C695.528 284.102 690.969 278.932 687.645 272.227C684.321 265.523 682.659 257.568 682.659 248.364C682.659 239.159 684.321 231.205 687.645 224.5C690.969 217.796 695.528 212.625 701.324 208.989C707.119 205.352 713.739 203.534 721.182 203.534C728.625 203.534 735.244 205.352 741.04 208.989C746.835 212.625 751.395 217.796 754.719 224.5C758.043 231.205 759.705 239.159 759.705 248.364ZM749.477 248.364C749.477 240.807 748.213 234.429 745.685 229.23C743.185 224.031 739.79 220.097 735.5 217.426C731.239 214.756 726.466 213.421 721.182 213.421C715.898 213.421 711.111 214.756 706.821 217.426C702.56 220.097 699.165 224.031 696.636 229.23C694.136 234.429 692.886 240.807 692.886 248.364C692.886 255.921 694.136 262.298 696.636 267.497C699.165 272.696 702.56 276.631 706.821 279.301C711.111 281.972 715.898 283.307 721.182 283.307C726.466 283.307 731.239 281.972 735.5 279.301C739.79 276.631 743.185 272.696 745.685 267.497C748.213 262.298 749.477 255.921 749.477 248.364Z" fill="white"/>
<path d="M664.879 204.728V292H654.311V204.728H664.879Z" fill="white"/>
<path d="M625.514 226.546C625.003 222.227 622.929 218.875 619.293 216.489C615.656 214.102 611.196 212.909 605.912 212.909C602.048 212.909 598.668 213.534 595.77 214.784C592.901 216.034 590.656 217.753 589.037 219.94C587.446 222.128 586.651 224.614 586.651 227.398C586.651 229.727 587.205 231.73 588.313 233.406C589.449 235.054 590.898 236.432 592.659 237.54C594.421 238.619 596.267 239.514 598.199 240.225C600.131 240.906 601.906 241.46 603.526 241.886L612.389 244.273C614.662 244.869 617.191 245.693 619.975 246.744C622.787 247.796 625.472 249.23 628.029 251.048C630.614 252.838 632.745 255.139 634.421 257.952C636.097 260.764 636.935 264.216 636.935 268.307C636.935 273.023 635.699 277.284 633.227 281.091C630.784 284.898 627.205 287.923 622.489 290.168C617.801 292.412 612.105 293.534 605.401 293.534C599.151 293.534 593.739 292.526 589.165 290.509C584.62 288.492 581.04 285.679 578.426 282.071C575.841 278.463 574.378 274.273 574.037 269.5H584.946C585.23 272.796 586.338 275.523 588.27 277.682C590.23 279.813 592.702 281.403 595.685 282.455C598.696 283.477 601.935 283.989 605.401 283.989C609.435 283.989 613.057 283.335 616.267 282.029C619.477 280.693 622.02 278.847 623.895 276.489C625.77 274.102 626.708 271.318 626.708 268.136C626.708 265.239 625.898 262.881 624.279 261.063C622.659 259.244 620.529 257.767 617.887 256.631C615.244 255.494 612.389 254.5 609.321 253.648L598.583 250.58C591.764 248.619 586.367 245.821 582.389 242.185C578.412 238.548 576.423 233.79 576.423 227.909C576.423 223.023 577.744 218.761 580.387 215.125C583.057 211.46 586.637 208.619 591.125 206.602C595.642 204.557 600.685 203.534 606.253 203.534C611.878 203.534 616.878 204.543 621.253 206.56C625.628 208.548 629.094 211.276 631.651 214.742C634.236 218.207 635.6 222.142 635.742 226.546H625.514Z" fill="white"/>
<path d="M546.115 204.728H556.683V262.512C556.683 268.478 555.276 273.804 552.464 278.492C549.68 283.151 545.745 286.83 540.66 289.529C535.575 292.199 529.609 293.534 522.762 293.534C515.916 293.534 509.95 292.199 504.865 289.529C499.779 286.83 495.83 283.151 493.018 278.492C490.234 273.804 488.842 268.478 488.842 262.512V204.728H499.41V261.659C499.41 265.921 500.347 269.713 502.222 273.037C504.097 276.333 506.768 278.932 510.234 280.835C513.728 282.71 517.904 283.648 522.762 283.648C527.62 283.648 531.796 282.71 535.291 280.835C538.785 278.932 541.455 276.333 543.302 273.037C545.177 269.713 546.115 265.921 546.115 261.659V204.728Z" fill="white"/>
<path d="M418.412 292V204.728H470.742V214.103H428.98V243.591H466.821V252.966H428.98V292H418.412Z" fill="white"/>
<path d="M320.358 292L296.494 204.728H307.233L325.471 275.807H326.324L344.903 204.728H356.835L375.415 275.807H376.267L394.505 204.728H405.244L381.38 292H370.471L351.21 222.455H350.528L331.267 292H320.358Z" fill="white"/>
<path d="M286.736 248.364C286.736 257.568 285.074 265.523 281.75 272.227C278.426 278.932 273.867 284.102 268.071 287.739C262.276 291.375 255.656 293.193 248.213 293.193C240.77 293.193 234.151 291.375 228.355 287.739C222.56 284.102 218 278.932 214.676 272.227C211.352 265.523 209.69 257.568 209.69 248.364C209.69 239.159 211.352 231.205 214.676 224.5C218 217.796 222.56 212.625 228.355 208.989C234.151 205.352 240.77 203.534 248.213 203.534C255.656 203.534 262.276 205.352 268.071 208.989C273.867 212.625 278.426 217.796 281.75 224.5C285.074 231.205 286.736 239.159 286.736 248.364ZM276.509 248.364C276.509 240.807 275.244 234.429 272.716 229.23C270.216 224.031 266.821 220.097 262.531 217.426C258.27 214.756 253.497 213.421 248.213 213.421C242.929 213.421 238.142 214.756 233.852 217.426C229.591 220.097 226.196 224.031 223.668 229.23C221.168 234.429 219.918 240.807 219.918 248.364C219.918 255.921 221.168 262.298 223.668 267.497C226.196 272.696 229.591 276.631 233.852 279.301C238.142 281.972 242.929 283.307 248.213 283.307C253.497 283.307 258.27 281.972 262.531 279.301C266.821 276.631 270.216 272.696 272.716 267.497C275.244 262.298 276.509 255.921 276.509 248.364Z" fill="white"/>
<path d="M148.998 292V204.728H159.566V282.625H200.134V292H148.998Z" fill="white"/>
<path d="M78.5684 292V204.728H130.898V214.103H89.1365V243.591H126.977V252.966H89.1365V292H78.5684Z" fill="white"/>
<path d="M1615.98 283V197.182H1653.19C1659.72 197.182 1665.21 198.062 1669.66 199.822C1674.13 201.581 1677.49 204.068 1679.75 207.28C1682.05 210.493 1683.19 214.278 1683.19 218.636C1683.19 221.793 1682.49 224.67 1681.1 227.268C1679.73 229.866 1677.8 232.045 1675.31 233.805C1672.83 235.537 1669.92 236.738 1666.6 237.409V238.247C1670.28 238.387 1673.64 239.323 1676.65 241.055C1679.67 242.759 1682.07 245.119 1683.86 248.136C1685.65 251.125 1686.54 254.645 1686.54 258.696C1686.54 263.389 1685.31 267.565 1682.86 271.225C1680.43 274.885 1676.96 277.762 1672.46 279.857C1667.97 281.952 1662.6 283 1656.37 283H1615.98ZM1639.28 264.395H1650.17C1654.08 264.395 1657.01 263.668 1658.97 262.216C1660.93 260.735 1661.9 258.556 1661.9 255.679C1661.9 253.667 1661.44 251.963 1660.52 250.567C1659.6 249.17 1658.29 248.108 1656.58 247.382C1654.91 246.656 1652.88 246.292 1650.51 246.292H1639.28V264.395ZM1639.28 231.878H1648.83C1650.87 231.878 1652.67 231.556 1654.24 230.914C1655.8 230.271 1657.01 229.349 1657.88 228.148C1658.77 226.919 1659.22 225.425 1659.22 223.665C1659.22 221.011 1658.27 218.985 1656.37 217.589C1654.47 216.164 1652.07 215.452 1649.17 215.452H1639.28V231.878Z" fill="#D2DCF0"/>
<path d="M1585.15 197.182H1608.44V252.159C1608.44 258.696 1606.88 264.353 1603.75 269.13C1600.65 273.879 1596.32 277.552 1590.76 280.15C1585.2 282.72 1578.75 284.006 1571.4 284.006C1564 284.006 1557.52 282.72 1551.96 280.15C1546.4 277.552 1542.07 273.879 1538.97 269.13C1535.9 264.353 1534.36 258.696 1534.36 252.159V197.182H1557.66V250.148C1557.66 252.801 1558.24 255.176 1559.42 257.271C1560.59 259.338 1562.21 260.959 1564.28 262.132C1566.37 263.305 1568.75 263.892 1571.4 263.892C1574.08 263.892 1576.46 263.305 1578.53 262.132C1580.59 260.959 1582.21 259.338 1583.39 257.271C1584.56 255.176 1585.15 252.801 1585.15 250.148V197.182Z" fill="#D2DCF0"/>
<path d="M1449.4 283V197.182H1472.7V230.704H1503.54V197.182H1526.84V283H1503.54V249.477H1472.7V283H1449.4Z" fill="#D2DCF0"/>
<path d="M1369.58 215.954V197.182H1444.17V215.954H1418.36V283H1395.4V215.954H1369.58Z" fill="#D2DCF0"/>
<path d="M1364.9 229.364H1341.27C1341.1 227.408 1340.65 225.634 1339.93 224.042C1339.23 222.45 1338.25 221.081 1336.99 219.936C1335.76 218.762 1334.27 217.868 1332.51 217.254C1330.75 216.611 1328.75 216.29 1326.52 216.29C1322.61 216.29 1319.29 217.24 1316.59 219.139C1313.9 221.039 1311.86 223.763 1310.47 227.311C1309.1 230.858 1308.41 235.119 1308.41 240.091C1308.41 245.343 1309.11 249.743 1310.51 253.291C1311.93 256.811 1313.99 259.465 1316.67 261.252C1319.35 263.012 1322.58 263.892 1326.35 263.892C1328.5 263.892 1330.43 263.627 1332.13 263.096C1333.84 262.537 1335.32 261.741 1336.57 260.708C1337.83 259.674 1338.85 258.431 1339.63 256.978C1340.44 255.498 1340.99 253.835 1341.27 251.992L1364.9 252.159C1364.62 255.791 1363.6 259.492 1361.84 263.264C1360.08 267.007 1357.58 270.471 1354.34 273.656C1351.13 276.813 1347.15 279.355 1342.4 281.282C1337.65 283.21 1332.13 284.174 1325.85 284.174C1317.97 284.174 1310.9 282.483 1304.64 279.103C1298.41 275.723 1293.48 270.751 1289.85 264.186C1286.25 257.621 1284.45 249.589 1284.45 240.091C1284.45 230.537 1286.29 222.492 1289.98 215.955C1293.66 209.39 1298.64 204.431 1304.89 201.079C1311.15 197.699 1318.14 196.009 1325.85 196.009C1331.27 196.009 1336.25 196.749 1340.81 198.23C1345.36 199.71 1349.35 201.875 1352.79 204.725C1356.23 207.546 1358.99 211.024 1361.09 215.159C1363.18 219.293 1364.45 224.028 1364.9 229.364Z" fill="#D2DCF0"/>
<path d="M1214.92 283V197.182H1276.77V215.954H1238.21V230.704H1273.58V249.477H1238.21V264.227H1276.6V283H1214.92Z" fill="#D2DCF0"/>
<path d="M1184.45 197.182H1207.41V256.014C1207.39 261.601 1205.98 266.518 1203.18 270.764C1200.42 274.982 1196.59 278.279 1191.7 280.653C1186.84 283 1181.24 284.173 1174.9 284.173C1169.39 284.173 1164.37 283.223 1159.81 281.324C1155.26 279.396 1151.63 276.379 1148.92 272.273C1146.21 268.138 1144.87 262.774 1144.89 256.182H1168.19C1168.28 258.333 1168.64 260.149 1169.28 261.629C1169.95 263.11 1170.88 264.227 1172.05 264.981C1173.25 265.708 1174.7 266.071 1176.41 266.071C1178.14 266.071 1179.59 265.694 1180.76 264.939C1181.97 264.185 1182.87 263.068 1183.49 261.587C1184.1 260.079 1184.42 258.221 1184.45 256.014V197.182Z" fill="#D2DCF0"/>
<path d="M1141.85 240.091C1141.85 249.645 1139.99 257.705 1136.27 264.269C1132.56 270.806 1127.54 275.765 1121.23 279.145C1114.92 282.497 1107.88 284.174 1100.11 284.174C1092.29 284.174 1085.22 282.483 1078.91 279.103C1072.62 275.695 1067.62 270.723 1063.91 264.186C1060.22 257.621 1058.37 249.589 1058.37 240.091C1058.37 230.537 1060.22 222.492 1063.91 215.955C1067.62 209.39 1072.62 204.431 1078.91 201.079C1085.22 197.699 1092.29 196.009 1100.11 196.009C1107.88 196.009 1114.92 197.699 1121.23 201.079C1127.54 204.431 1132.56 209.39 1136.27 215.955C1139.99 222.492 1141.85 230.537 1141.85 240.091ZM1117.88 240.091C1117.88 234.951 1117.19 230.621 1115.82 227.101C1114.48 223.553 1112.49 220.871 1109.83 219.056C1107.21 217.212 1103.96 216.29 1100.11 216.29C1096.25 216.29 1093 217.212 1090.35 219.056C1087.72 220.871 1085.72 223.553 1084.35 227.101C1083.01 230.621 1082.34 234.951 1082.34 240.091C1082.34 245.231 1083.01 249.575 1084.35 253.123C1085.72 256.643 1087.72 259.325 1090.35 261.169C1093 262.984 1096.25 263.892 1100.11 263.892C1103.96 263.892 1107.21 262.984 1109.83 261.169C1112.49 259.325 1114.48 256.643 1115.82 253.123C1117.19 249.575 1117.88 245.231 1117.88 240.091Z" fill="#D2DCF0"/>
<path d="M983.429 283V197.182H1020.47C1026.84 197.182 1032.41 198.341 1037.19 200.66C1041.97 202.978 1045.68 206.317 1048.34 210.675C1050.99 215.032 1052.32 220.256 1052.32 226.346C1052.32 232.492 1050.95 237.674 1048.21 241.893C1045.5 246.111 1041.69 249.296 1036.77 251.447C1031.88 253.598 1026.17 254.673 1019.63 254.673H997.508V236.571H1014.94C1017.68 236.571 1020.01 236.236 1021.94 235.565C1023.89 234.867 1025.39 233.763 1026.42 232.255C1027.48 230.746 1028.01 228.777 1028.01 226.346C1028.01 223.888 1027.48 221.891 1026.42 220.354C1025.39 218.79 1023.89 217.644 1021.94 216.918C1020.01 216.164 1017.68 215.787 1014.94 215.787H1006.73V283H983.429ZM1033.71 243.611L1055.17 283H1029.86L1008.91 243.611H1033.71Z" fill="#D2DCF0"/>
<path d="M909.531 283V197.182H946.574C952.943 197.182 958.516 198.439 963.293 200.953C968.07 203.467 971.786 207.001 974.44 211.555C977.094 216.108 978.42 221.43 978.42 227.52C978.42 233.666 977.052 238.987 974.314 243.485C971.604 247.983 967.791 251.447 962.874 253.877C957.986 256.307 952.273 257.523 945.736 257.523H923.611V239.42H941.043C943.78 239.42 946.113 238.945 948.04 237.996C949.996 237.018 951.491 235.635 952.524 233.847C953.586 232.059 954.116 229.95 954.116 227.52C954.116 225.061 953.586 222.966 952.524 221.234C951.491 219.474 949.996 218.133 948.04 217.211C946.113 216.262 943.78 215.787 941.043 215.787H932.83V283H909.531Z" fill="#D2DCF0"/>
</svg>
