<svg width="72" height="32" viewBox="0 0 72 32" fill="none" xmlns="http://www.w3.org/2000/svg">
<path d="M10.5938 -7.15256e-07L6.60938 24H0.140625L4.125 -7.15256e-07H10.5938ZM18.5303 24.3281C16.5771 24.3281 14.9678 23.9414 13.7021 23.168C12.4443 22.3867 11.5615 21.3008 11.0537 19.9102C10.5459 18.5117 10.4443 16.8906 10.749 15.0469C11.0537 13.2031 11.6904 11.5859 12.6592 10.1953C13.6279 8.79687 14.874 7.71094 16.3975 6.9375C17.9209 6.15625 19.6631 5.76563 21.624 5.76563C23.5693 5.76563 25.1709 6.15625 26.4287 6.9375C27.6943 7.71094 28.5811 8.79687 29.0889 10.1953C29.6045 11.5859 29.71 13.2031 29.4053 15.0469C29.1006 16.8906 28.46 18.5117 27.4834 19.9102C26.5068 21.3008 25.2568 22.3867 23.7334 23.168C22.2178 23.9414 20.4834 24.3281 18.5303 24.3281ZM19.3271 19.5469C19.8896 19.5469 20.4014 19.3633 20.8623 18.9961C21.3311 18.6289 21.7295 18.1055 22.0576 17.4258C22.3936 16.7461 22.6396 15.9375 22.7959 15C22.9521 14.0547 22.9756 13.2461 22.8662 12.5742C22.7568 11.8945 22.5303 11.3711 22.1865 11.0039C21.8428 10.6367 21.3896 10.4531 20.8271 10.4531C20.2646 10.4531 19.749 10.6367 19.2803 11.0039C18.8115 11.3711 18.4131 11.8945 18.085 12.5742C17.7568 13.2461 17.5146 14.0547 17.3584 15C17.2021 15.9375 17.1748 16.7461 17.2764 17.4258C17.3857 18.1055 17.6123 18.6289 17.9561 18.9961C18.3076 19.3633 18.7646 19.5469 19.3271 19.5469ZM38.0771 31.125C36.2646 31.125 34.7568 30.8672 33.5537 30.3516C32.3584 29.8438 31.4756 29.1406 30.9053 28.2422C30.3428 27.3516 30.1084 26.3281 30.2021 25.1719H36.4365C36.4521 25.5625 36.5654 25.875 36.7764 26.1094C36.9873 26.3438 37.2803 26.5117 37.6553 26.6133C38.0303 26.7148 38.4678 26.7656 38.9678 26.7656C39.8115 26.7656 40.542 26.5586 41.1592 26.1445C41.7764 25.7383 42.1553 25.0078 42.2959 23.9531L42.8115 20.9062H42.624C42.2959 21.5156 41.8545 22.0352 41.2998 22.4648C40.7451 22.8867 40.1084 23.2109 39.3896 23.4375C38.6709 23.6562 37.9053 23.7656 37.0928 23.7656C35.8115 23.7656 34.6826 23.4687 33.7061 22.875C32.7373 22.2812 32.0342 21.3398 31.5967 20.0508C31.167 18.7617 31.124 17.0781 31.4678 15C31.8271 12.8281 32.46 11.0625 33.3662 9.70312C34.2725 8.34375 35.3154 7.34766 36.4951 6.71484C37.6748 6.08203 38.8584 5.76563 40.0459 5.76563C40.9365 5.76563 41.6904 5.92187 42.3076 6.23437C42.9248 6.53906 43.417 6.94922 43.7842 7.46484C44.1514 7.97266 44.4053 8.53125 44.5459 9.14062H44.6865L45.2021 6H51.6709L48.6709 23.9531C48.4365 25.4844 47.8389 26.7813 46.8779 27.8438C45.9248 28.9141 44.6904 29.7266 43.1748 30.2813C41.667 30.8438 39.9678 31.125 38.0771 31.125ZM40.2334 19.1719C40.8271 19.1719 41.3662 19.0078 41.8506 18.6797C42.335 18.3437 42.7451 17.8672 43.0811 17.25C43.417 16.625 43.6553 15.875 43.7959 15C43.9365 14.1094 43.9443 13.3477 43.8193 12.7148C43.6943 12.0742 43.4482 11.5859 43.0811 11.25C42.7139 10.9062 42.2334 10.7344 41.6396 10.7344C41.0459 10.7344 40.5107 10.9062 40.0342 11.25C39.5576 11.5859 39.1553 12.0742 38.8271 12.7148C38.499 13.3477 38.2646 14.1094 38.124 15C37.9834 15.8906 37.9717 16.6484 38.0889 17.2734C38.2061 17.8906 38.4443 18.3633 38.8037 18.6914C39.1631 19.0117 39.6396 19.1719 40.2334 19.1719ZM60.5859 24.3281C58.6328 24.3281 57.0234 23.9414 55.7578 23.168C54.5 22.3867 53.6172 21.3008 53.1094 19.9102C52.6016 18.5117 52.5 16.8906 52.8047 15.0469C53.1094 13.2031 53.7461 11.5859 54.7148 10.1953C55.6836 8.79687 56.9297 7.71094 58.4531 6.9375C59.9766 6.15625 61.7188 5.76563 63.6797 5.76563C65.625 5.76563 67.2266 6.15625 68.4844 6.9375C69.75 7.71094 70.6367 8.79687 71.1445 10.1953C71.6602 11.5859 71.7656 13.2031 71.4609 15.0469C71.1563 16.8906 70.5156 18.5117 69.5391 19.9102C68.5625 21.3008 67.3125 22.3867 65.7891 23.168C64.2734 23.9414 62.5391 24.3281 60.5859 24.3281ZM61.3828 19.5469C61.9453 19.5469 62.457 19.3633 62.918 18.9961C63.3867 18.6289 63.7852 18.1055 64.1133 17.4258C64.4492 16.7461 64.6953 15.9375 64.8516 15C65.0078 14.0547 65.0313 13.2461 64.9219 12.5742C64.8125 11.8945 64.5859 11.3711 64.2422 11.0039C63.8984 10.6367 63.4453 10.4531 62.8828 10.4531C62.3203 10.4531 61.8047 10.6367 61.3359 11.0039C60.8672 11.3711 60.4688 11.8945 60.1406 12.5742C59.8125 13.2461 59.5703 14.0547 59.4141 15C59.2578 15.9375 59.2305 16.7461 59.332 17.4258C59.4414 18.1055 59.668 18.6289 60.0117 18.9961C60.3633 19.3633 60.8203 19.5469 61.3828 19.5469Z" fill="#0057FF"/>
</svg>
