<svg width="116" height="43" viewBox="0 0 116 43" fill="none" xmlns="http://www.w3.org/2000/svg">
<rect width="116" height="43" fill="white"/>
<path d="M22.66 11.3071C24.054 11.3071 25.414 11.5791 26.689 12.1231C27.913 12.6501 29.018 13.3811 29.97 14.3331C30.922 15.2851 31.67 16.3901 32.18 17.6141C32.724 18.8891 32.996 20.2491 32.996 21.6431C32.996 23.0371 32.724 24.3971 32.18 25.6721C31.653 26.8961 30.922 28.0011 29.97 28.9531C29.018 29.9051 27.913 30.6531 26.689 31.1631C25.414 31.7071 24.054 31.9791 22.66 31.9791C21.266 31.9791 19.906 31.7071 18.631 31.1631C17.407 30.6361 16.302 29.9051 15.35 28.9531C14.398 28.0011 13.65 26.8961 13.14 25.6721C12.596 24.3971 12.324 23.0371 12.324 21.6431C12.324 20.2491 12.596 18.8891 13.14 17.6141C13.65 16.4071 14.398 15.3021 15.35 14.3501C16.302 13.3981 17.407 12.6501 18.631 12.1401C19.906 11.5791 21.266 11.3071 22.66 11.3071ZM22.66 9.60706C16.013 9.60706 10.607 14.9961 10.607 21.6601C10.607 28.3241 15.996 33.7131 22.66 33.7131C29.324 33.7131 34.696 28.3241 34.696 21.6601C34.696 14.9961 29.307 9.60706 22.66 9.60706Z" fill="#0057FF"/>
<path d="M27.641 25.111C27.454 25.111 27.284 25.179 27.131 25.281C25.856 26.284 24.309 26.828 22.66 26.828C21.011 26.828 19.464 26.284 18.189 25.281C18.053 25.162 17.866 25.111 17.679 25.111C16.914 25.111 16.574 26.08 17.186 26.556C18.699 27.746 20.603 28.46 22.66 28.46C24.717 28.46 26.638 27.746 28.134 26.556C28.746 26.08 28.406 25.111 27.641 25.111Z" fill="#0057FF"/>
<path d="M56.7443 18.1818C56.6676 17.5341 56.3565 17.0312 55.8111 16.6733C55.2656 16.3153 54.5966 16.1364 53.804 16.1364C53.2244 16.1364 52.7173 16.2301 52.2827 16.4176C51.8523 16.6051 51.5156 16.8629 51.2727 17.1911C51.0341 17.5192 50.9148 17.892 50.9148 18.3097C50.9148 18.6591 50.9979 18.9595 51.1641 19.2109C51.3345 19.4581 51.5518 19.6648 51.8161 19.831C52.0803 19.9929 52.3572 20.1271 52.647 20.2337C52.9368 20.3359 53.2031 20.419 53.446 20.483L54.7756 20.8409C55.1165 20.9304 55.4957 21.054 55.9134 21.2116C56.3352 21.3693 56.7379 21.5845 57.1214 21.8572C57.5092 22.1257 57.8288 22.4709 58.0803 22.8928C58.3317 23.3146 58.4574 23.8324 58.4574 24.446C58.4574 25.1534 58.272 25.7926 57.9013 26.3636C57.5348 26.9347 56.9979 27.3885 56.2905 27.7251C55.5874 28.0618 54.733 28.2301 53.7273 28.2301C52.7898 28.2301 51.978 28.0788 51.2919 27.7763C50.6101 27.4737 50.0732 27.0518 49.6811 26.5107C49.2933 25.9695 49.0739 25.3409 49.0227 24.625H50.6591C50.7017 25.1193 50.8679 25.5284 51.1577 25.8523C51.4517 26.1719 51.8224 26.4105 52.2699 26.5682C52.7216 26.7216 53.2074 26.7983 53.7273 26.7983C54.3324 26.7983 54.8757 26.7003 55.3572 26.5043C55.8388 26.304 56.2202 26.027 56.5014 25.6733C56.7827 25.3153 56.9233 24.8977 56.9233 24.4205C56.9233 23.9858 56.8018 23.6321 56.5589 23.3594C56.3161 23.0866 55.9964 22.8651 55.6001 22.6946C55.2038 22.5241 54.7756 22.375 54.3153 22.2472L52.7045 21.7869C51.6818 21.4929 50.8722 21.0732 50.2756 20.5277C49.679 19.9822 49.3807 19.2685 49.3807 18.3864C49.3807 17.6534 49.5788 17.0142 49.9751 16.4688C50.3757 15.919 50.9126 15.4929 51.5859 15.1903C52.2635 14.8835 53.0199 14.7301 53.8551 14.7301C54.6989 14.7301 55.4489 14.8814 56.1051 15.1839C56.7614 15.4822 57.2813 15.8913 57.6648 16.4112C58.0526 16.9311 58.2571 17.5213 58.2784 18.1818H56.7443ZM60.8592 28V18.1818H62.3677V28H60.8592ZM61.6262 16.5455C61.3322 16.5455 61.0787 16.4453 60.8656 16.245C60.6568 16.0447 60.5524 15.804 60.5524 15.5227C60.5524 15.2415 60.6568 15.0007 60.8656 14.8004C61.0787 14.6001 61.3322 14.5 61.6262 14.5C61.9203 14.5 62.1717 14.6001 62.3805 14.8004C62.5936 15.0007 62.7001 15.2415 62.7001 15.5227C62.7001 15.804 62.5936 16.0447 62.3805 16.245C62.1717 16.4453 61.9203 16.5455 61.6262 16.5455ZM69.0938 31.8864C68.3651 31.8864 67.7386 31.7926 67.2145 31.6051C66.6903 31.4219 66.2536 31.179 65.9041 30.8764C65.5589 30.5781 65.2841 30.2585 65.0795 29.9176L66.2812 29.0739C66.4176 29.2528 66.5902 29.4574 66.799 29.6875C67.0078 29.9219 67.2933 30.1243 67.6555 30.2947C68.022 30.4695 68.5014 30.5568 69.0938 30.5568C69.8864 30.5568 70.5405 30.3651 71.0561 29.9815C71.5717 29.598 71.8295 28.9972 71.8295 28.179V26.1847H71.7017C71.5909 26.3636 71.4332 26.5852 71.2287 26.8494C71.0284 27.1094 70.7386 27.3416 70.3594 27.5462C69.9844 27.7464 69.4773 27.8466 68.8381 27.8466C68.0455 27.8466 67.3338 27.6591 66.7031 27.2841C66.0767 26.9091 65.5803 26.3636 65.2138 25.6477C64.8516 24.9318 64.6705 24.0625 64.6705 23.0398C64.6705 22.0341 64.8473 21.1584 65.201 20.4126C65.5547 19.6626 66.0469 19.0831 66.6776 18.674C67.3082 18.2607 68.0369 18.054 68.8636 18.054C69.5028 18.054 70.0099 18.1605 70.3849 18.3736C70.7642 18.5824 71.054 18.821 71.2543 19.0895C71.4588 19.3537 71.6165 19.571 71.7273 19.7415H71.8807V18.1818H73.3381V28.2812C73.3381 29.125 73.1463 29.8111 72.7628 30.3395C72.3835 30.8722 71.8722 31.2621 71.2287 31.5092C70.5895 31.7607 69.8778 31.8864 69.0938 31.8864ZM69.0426 26.4915C69.6477 26.4915 70.1591 26.353 70.5767 26.076C70.9943 25.799 71.3118 25.4006 71.5291 24.8807C71.7464 24.3608 71.8551 23.7386 71.8551 23.0142C71.8551 22.3068 71.7486 21.6825 71.5355 21.1413C71.3224 20.6001 71.0071 20.1761 70.5895 19.8693C70.1719 19.5625 69.6563 19.4091 69.0426 19.4091C68.4034 19.4091 67.8707 19.571 67.4446 19.8949C67.0227 20.2187 66.7053 20.6534 66.4922 21.1989C66.2834 21.7443 66.179 22.3494 66.179 23.0142C66.179 23.696 66.2855 24.299 66.4986 24.8232C66.7159 25.343 67.0355 25.7521 67.4574 26.0504C67.8835 26.3445 68.4119 26.4915 69.0426 26.4915ZM77.608 22.0938V28H76.0994V18.1818H77.5568V19.7159H77.6847C77.9148 19.2173 78.2642 18.8168 78.733 18.5142C79.2017 18.2074 79.8068 18.054 80.5483 18.054C81.2131 18.054 81.7947 18.1903 82.2933 18.4631C82.7919 18.7315 83.1797 19.1406 83.4567 19.6903C83.7337 20.2358 83.8722 20.9261 83.8722 21.7614V28H82.3636V21.8636C82.3636 21.0923 82.1634 20.4915 81.7628 20.0611C81.3622 19.6264 80.8125 19.4091 80.1136 19.4091C79.6321 19.4091 79.2017 19.5135 78.8224 19.7223C78.4474 19.9311 78.1513 20.2358 77.9339 20.6364C77.7166 21.0369 77.608 21.5227 77.608 22.0938ZM91.6912 28V18.1818H93.1998V28H91.6912ZM92.4583 16.5455C92.1642 16.5455 91.9107 16.4453 91.6976 16.245C91.4888 16.0447 91.3844 15.804 91.3844 15.5227C91.3844 15.2415 91.4888 15.0007 91.6976 14.8004C91.9107 14.6001 92.1642 14.5 92.4583 14.5C92.7523 14.5 93.0037 14.6001 93.2125 14.8004C93.4256 15.0007 93.5321 15.2415 93.5321 15.5227C93.5321 15.804 93.4256 16.0447 93.2125 16.245C93.0037 16.4453 92.7523 16.5455 92.4583 16.5455ZM97.4712 22.0938V28H95.9627V18.1818H97.4201V19.7159H97.5479C97.7781 19.2173 98.1275 18.8168 98.5962 18.5142C99.065 18.2074 99.6701 18.054 100.412 18.054C101.076 18.054 101.658 18.1903 102.157 18.4631C102.655 18.7315 103.043 19.1406 103.32 19.6903C103.597 20.2358 103.735 20.9261 103.735 21.7614V28H102.227V21.8636C102.227 21.0923 102.027 20.4915 101.626 20.0611C101.225 19.6264 100.676 19.4091 99.9769 19.4091C99.4954 19.4091 99.065 19.5135 98.6857 19.7223C98.3107 19.9311 98.0146 20.2358 97.7972 20.6364C97.5799 21.0369 97.4712 21.5227 97.4712 22.0938Z" fill="#777777"/>
</svg>
