<svg width="34" height="34" viewBox="0 0 34 34" fill="none" xmlns="http://www.w3.org/2000/svg">
<path d="M16.66 6.30693C18.054 6.30693 19.414 6.57893 20.689 7.12293C21.913 7.64993 23.018 8.38093 23.97 9.33293C24.922 10.2849 25.67 11.3899 26.18 12.6139C26.724 13.8889 26.996 15.2489 26.996 16.6429C26.996 18.0369 26.724 19.3969 26.18 20.6719C25.653 21.8959 24.922 23.0009 23.97 23.9529C23.018 24.9049 21.913 25.6529 20.689 26.1629C19.414 26.7069 18.054 26.9789 16.66 26.9789C15.266 26.9789 13.906 26.7069 12.631 26.1629C11.407 25.6359 10.302 24.9049 9.34999 23.9529C8.39799 23.0009 7.64999 21.8959 7.13999 20.6719C6.59599 19.3969 6.32399 18.0369 6.32399 16.6429C6.32399 15.2489 6.59599 13.8889 7.13999 12.6139C7.64999 11.4069 8.39799 10.3019 9.34999 9.34993C10.302 8.39793 11.407 7.64993 12.631 7.13993C13.906 6.57893 15.266 6.30693 16.66 6.30693ZM16.66 4.60693C10.013 4.60693 4.60699 9.99593 4.60699 16.6599C4.60699 23.3239 9.99599 28.7129 16.66 28.7129C23.324 28.7129 28.696 23.3239 28.696 16.6599C28.696 9.99593 23.307 4.60693 16.66 4.60693Z" fill="#0057FF"/>
<path d="M21.641 20.1111C21.454 20.1111 21.284 20.1791 21.131 20.2811C19.856 21.2841 18.309 21.8281 16.66 21.8281C15.011 21.8281 13.464 21.2841 12.189 20.2811C12.053 20.1621 11.866 20.1111 11.679 20.1111C10.914 20.1111 10.574 21.0801 11.186 21.5561C12.699 22.7461 14.603 23.4601 16.66 23.4601C18.717 23.4601 20.638 22.7461 22.134 21.5561C22.746 21.0801 22.406 20.1111 21.641 20.1111Z" fill="#0057FF"/>
</svg>
