<svg width="180" height="42" viewBox="0 0 180 42" fill="none" xmlns="http://www.w3.org/2000/svg">
<rect y="2" width="180" height="40" rx="20" fill="#0057FF"/>
<path d="M35.4714 12.896C35.4714 8.67607 32.036 5.24072 27.8161 5.24072C23.5962 5.24072 20.1608 8.67607 20.1608 12.896C20.1608 15.6572 21.6309 18.0795 23.8247 19.4277C23.4286 19.5534 23.0401 19.6981 22.6555 19.8581C21.052 20.536 19.6124 21.5072 18.3746 22.745C17.1368 23.9828 16.1656 25.4225 15.4877 27.0259C14.7869 28.6864 14.4289 30.4498 14.4289 32.2665H16.1808C16.1808 25.8071 21.4367 20.5513 27.8961 20.5513C32.0817 20.5056 35.4714 17.0893 35.4714 12.896ZM21.9128 12.896C21.9128 9.63965 24.5598 6.99268 27.8161 6.99268C31.0724 6.99268 33.7194 9.63965 33.7194 12.896C33.7194 16.1523 31.0724 18.7993 27.8161 18.7993C24.5598 18.7993 21.9128 16.1523 21.9128 12.896ZM37.1548 25.9747V24.0628H40.1064V22.3108H37.1586V20.1019H40.1064V18.3499H35.4028V26.1499C33.8527 26.6755 32.752 28.1418 32.752 29.8519C32.752 32.0075 34.504 33.7595 36.6597 33.7595C38.8153 33.7595 40.5673 32.0075 40.5673 29.8519C40.5711 27.8638 39.0781 26.2185 37.1548 25.9747ZM36.6597 32.0075C35.4714 32.0075 34.504 31.0401 34.504 29.8519C34.504 28.7093 35.3952 27.7647 36.534 27.6962C36.5759 27.6924 36.6178 27.6924 36.6597 27.6924C37.8479 27.6924 38.8153 28.6598 38.8153 29.848C38.8153 31.0363 37.8517 32.0075 36.6597 32.0075Z" fill="white"/>
<path d="M52.1222 27H50.4602L55.267 13.9091H56.9034L61.7102 27H60.0483L56.1364 15.9801H56.0341L52.1222 27ZM52.7358 21.8864H59.4347V23.2926H52.7358V21.8864ZM67.2521 27.2045C66.4339 27.2045 65.7116 26.9979 65.0852 26.5845C64.4588 26.1669 63.9688 25.5788 63.6151 24.8203C63.2614 24.0575 63.0845 23.1562 63.0845 22.1165C63.0845 21.0852 63.2614 20.1903 63.6151 19.4318C63.9688 18.6733 64.4609 18.0874 65.0916 17.674C65.7223 17.2607 66.451 17.054 67.2777 17.054C67.9169 17.054 68.4219 17.1605 68.7926 17.3736C69.1676 17.5824 69.4531 17.821 69.6491 18.0895C69.8494 18.3537 70.005 18.571 70.1158 18.7415H70.2436V13.9091H71.7521V27H70.2947V25.4915H70.1158C70.005 25.6705 69.8473 25.8963 69.6428 26.169C69.4382 26.4375 69.1463 26.6783 68.767 26.8913C68.3878 27.1001 67.8828 27.2045 67.2521 27.2045ZM67.4567 25.8494C68.0618 25.8494 68.5732 25.6918 68.9908 25.3764C69.4084 25.0568 69.7259 24.6158 69.9432 24.0533C70.1605 23.4865 70.2692 22.8324 70.2692 22.0909C70.2692 21.358 70.1626 20.7166 69.9496 20.1669C69.7365 19.6129 69.4212 19.1825 69.0036 18.8757C68.5859 18.5646 68.0703 18.4091 67.4567 18.4091C66.8175 18.4091 66.2848 18.5732 65.8587 18.9013C65.4368 19.2251 65.1193 19.6662 64.9062 20.2244C64.6974 20.7784 64.593 21.4006 64.593 22.0909C64.593 22.7898 64.6996 23.4247 64.9126 23.9957C65.13 24.5625 65.4496 25.0142 65.8714 25.3509C66.2976 25.6832 66.826 25.8494 67.4567 25.8494ZM74.7244 27V17.1818H76.1818V18.7159H76.3097C76.5142 18.1918 76.8445 17.7848 77.3004 17.495C77.7564 17.201 78.304 17.054 78.9432 17.054C79.5909 17.054 80.13 17.201 80.5604 17.495C80.995 17.7848 81.3338 18.1918 81.5767 18.7159H81.679C81.9304 18.2088 82.3075 17.8061 82.8104 17.5078C83.3132 17.2053 83.9162 17.054 84.6193 17.054C85.4972 17.054 86.2152 17.3288 86.7734 17.8786C87.3317 18.424 87.6108 19.2741 87.6108 20.429V27H86.1023V20.429C86.1023 19.7045 85.9041 19.1868 85.5078 18.8757C85.1115 18.5646 84.6449 18.4091 84.108 18.4091C83.4176 18.4091 82.8828 18.6179 82.5036 19.0355C82.1243 19.4489 81.9347 19.973 81.9347 20.608V27H80.4006V20.2756C80.4006 19.7173 80.2195 19.2678 79.8572 18.9268C79.495 18.5817 79.0284 18.4091 78.4574 18.4091C78.0653 18.4091 77.6989 18.5135 77.358 18.7223C77.0213 18.9311 76.7486 19.2209 76.5398 19.5916C76.3352 19.9581 76.233 20.3821 76.233 20.8636V27H74.7244ZM90.369 27V17.1818H91.8775V27H90.369ZM91.136 15.5455C90.842 15.5455 90.5884 15.4453 90.3754 15.245C90.1665 15.0447 90.0621 14.804 90.0621 14.5227C90.0621 14.2415 90.1665 14.0007 90.3754 13.8004C90.5884 13.6001 90.842 13.5 91.136 13.5C91.43 13.5 91.6815 13.6001 91.8903 13.8004C92.1033 14.0007 92.2099 14.2415 92.2099 14.5227C92.2099 14.804 92.1033 15.0447 91.8903 15.245C91.6815 15.4453 91.43 15.5455 91.136 15.5455ZM96.149 21.0938V27H94.6404V17.1818H96.0978V18.7159H96.2257C96.4558 18.2173 96.8052 17.8168 97.274 17.5142C97.7427 17.2074 98.3478 17.054 99.0893 17.054C99.7541 17.054 100.336 17.1903 100.834 17.4631C101.333 17.7315 101.721 18.1406 101.998 18.6903C102.275 19.2358 102.413 19.9261 102.413 20.7614V27H100.905V20.8636C100.905 20.0923 100.704 19.4915 100.304 19.0611C99.9032 18.6264 99.3535 18.4091 98.6547 18.4091C98.1731 18.4091 97.7427 18.5135 97.3635 18.7223C96.9885 18.9311 96.6923 19.2358 96.475 19.6364C96.2576 20.0369 96.149 20.5227 96.149 21.0938ZM117.596 17.1818C117.519 16.5341 117.208 16.0312 116.663 15.6733C116.117 15.3153 115.448 15.1364 114.656 15.1364C114.076 15.1364 113.569 15.2301 113.134 15.4176C112.704 15.6051 112.367 15.8629 112.124 16.1911C111.886 16.5192 111.766 16.892 111.766 17.3097C111.766 17.6591 111.849 17.9595 112.016 18.2109C112.186 18.4581 112.403 18.6648 112.668 18.831C112.932 18.9929 113.209 19.1271 113.499 19.2337C113.788 19.3359 114.055 19.419 114.298 19.483L115.627 19.8409C115.968 19.9304 116.347 20.054 116.765 20.2116C117.187 20.3693 117.589 20.5845 117.973 20.8572C118.361 21.1257 118.68 21.4709 118.932 21.8928C119.183 22.3146 119.309 22.8324 119.309 23.446C119.309 24.1534 119.124 24.7926 118.753 25.3636C118.386 25.9347 117.849 26.3885 117.142 26.7251C116.439 27.0618 115.585 27.2301 114.579 27.2301C113.641 27.2301 112.83 27.0788 112.143 26.7763C111.462 26.4737 110.925 26.0518 110.533 25.5107C110.145 24.9695 109.925 24.3409 109.874 23.625H111.511C111.553 24.1193 111.719 24.5284 112.009 24.8523C112.303 25.1719 112.674 25.4105 113.121 25.5682C113.573 25.7216 114.059 25.7983 114.579 25.7983C115.184 25.7983 115.727 25.7003 116.209 25.5043C116.69 25.304 117.072 25.027 117.353 24.6733C117.634 24.3153 117.775 23.8977 117.775 23.4205C117.775 22.9858 117.653 22.6321 117.411 22.3594C117.168 22.0866 116.848 21.8651 116.452 21.6946C116.055 21.5241 115.627 21.375 115.167 21.2472L113.556 20.7869C112.533 20.4929 111.724 20.0732 111.127 19.5277C110.531 18.9822 110.232 18.2685 110.232 17.3864C110.232 16.6534 110.43 16.0142 110.827 15.4688C111.227 14.919 111.764 14.4929 112.438 14.1903C113.115 13.8835 113.871 13.7301 114.707 13.7301C115.55 13.7301 116.3 13.8814 116.957 14.1839C117.613 14.4822 118.133 14.8913 118.516 15.4112C118.904 15.9311 119.109 16.5213 119.13 17.1818H117.596ZM121.711 27V17.1818H123.219V27H121.711ZM122.478 15.5455C122.184 15.5455 121.93 15.4453 121.717 15.245C121.508 15.0447 121.404 14.804 121.404 14.5227C121.404 14.2415 121.508 14.0007 121.717 13.8004C121.93 13.6001 122.184 13.5 122.478 13.5C122.772 13.5 123.023 13.6001 123.232 13.8004C123.445 14.0007 123.552 14.2415 123.552 14.5227C123.552 14.804 123.445 15.0447 123.232 15.245C123.023 15.4453 122.772 15.5455 122.478 15.5455ZM129.945 30.8864C129.217 30.8864 128.59 30.7926 128.066 30.6051C127.542 30.4219 127.105 30.179 126.756 29.8764C126.411 29.5781 126.136 29.2585 125.931 28.9176L127.133 28.0739C127.269 28.2528 127.442 28.4574 127.651 28.6875C127.859 28.9219 128.145 29.1243 128.507 29.2947C128.874 29.4695 129.353 29.5568 129.945 29.5568C130.738 29.5568 131.392 29.3651 131.908 28.9815C132.423 28.598 132.681 27.9972 132.681 27.179V25.1847H132.553C132.442 25.3636 132.285 25.5852 132.08 25.8494C131.88 26.1094 131.59 26.3416 131.211 26.5462C130.836 26.7464 130.329 26.8466 129.69 26.8466C128.897 26.8466 128.185 26.6591 127.555 26.2841C126.928 25.9091 126.432 25.3636 126.065 24.6477C125.703 23.9318 125.522 23.0625 125.522 22.0398C125.522 21.0341 125.699 20.1584 126.053 19.4126C126.406 18.6626 126.898 18.0831 127.529 17.674C128.16 17.2607 128.888 17.054 129.715 17.054C130.354 17.054 130.862 17.1605 131.237 17.3736C131.616 17.5824 131.906 17.821 132.106 18.0895C132.31 18.3537 132.468 18.571 132.579 18.7415H132.732V17.1818H134.19V27.2812C134.19 28.125 133.998 28.8111 133.614 29.3395C133.235 29.8722 132.724 30.2621 132.08 30.5092C131.441 30.7607 130.729 30.8864 129.945 30.8864ZM129.894 25.4915C130.499 25.4915 131.011 25.353 131.428 25.076C131.846 24.799 132.163 24.4006 132.381 23.8807C132.598 23.3608 132.707 22.7386 132.707 22.0142C132.707 21.3068 132.6 20.6825 132.387 20.1413C132.174 19.6001 131.859 19.1761 131.441 18.8693C131.023 18.5625 130.508 18.4091 129.894 18.4091C129.255 18.4091 128.722 18.571 128.296 18.8949C127.874 19.2187 127.557 19.6534 127.344 20.1989C127.135 20.7443 127.031 21.3494 127.031 22.0142C127.031 22.696 127.137 23.299 127.35 23.8232C127.567 24.343 127.887 24.7521 128.309 25.0504C128.735 25.3445 129.263 25.4915 129.894 25.4915ZM138.46 21.0938V27H136.951V17.1818H138.408V18.7159H138.536C138.766 18.2173 139.116 17.8168 139.585 17.5142C140.053 17.2074 140.658 17.054 141.4 17.054C142.065 17.054 142.646 17.1903 143.145 17.4631C143.643 17.7315 144.031 18.1406 144.308 18.6903C144.585 19.2358 144.724 19.9261 144.724 20.7614V27H143.215V20.8636C143.215 20.0923 143.015 19.4915 142.614 19.0611C142.214 18.6264 141.664 18.4091 140.965 18.4091C140.484 18.4091 140.053 18.5135 139.674 18.7223C139.299 18.9311 139.003 19.2358 138.786 19.6364C138.568 20.0369 138.46 20.5227 138.46 21.0938ZM152.543 27V17.1818H154.051V27H152.543ZM153.31 15.5455C153.016 15.5455 152.762 15.4453 152.549 15.245C152.34 15.0447 152.236 14.804 152.236 14.5227C152.236 14.2415 152.34 14.0007 152.549 13.8004C152.762 13.6001 153.016 13.5 153.31 13.5C153.604 13.5 153.855 13.6001 154.064 13.8004C154.277 14.0007 154.384 14.2415 154.384 14.5227C154.384 14.804 154.277 15.0447 154.064 15.245C153.855 15.4453 153.604 15.5455 153.31 15.5455ZM158.323 21.0938V27H156.814V17.1818H158.272V18.7159H158.4C158.63 18.2173 158.979 17.8168 159.448 17.5142C159.917 17.2074 160.522 17.054 161.263 17.054C161.928 17.054 162.51 17.1903 163.008 17.4631C163.507 17.7315 163.895 18.1406 164.172 18.6903C164.449 19.2358 164.587 19.9261 164.587 20.7614V27H163.078V20.8636C163.078 20.0923 162.878 19.4915 162.478 19.0611C162.077 18.6264 161.527 18.4091 160.828 18.4091C160.347 18.4091 159.917 18.5135 159.537 18.7223C159.162 18.9311 158.866 19.2358 158.649 19.6364C158.431 20.0369 158.323 20.5227 158.323 21.0938Z" fill="white"/>
</svg>
