<svg width="124" height="124" viewBox="0 0 124 124" fill="none" xmlns="http://www.w3.org/2000/svg">
<circle cx="62" cy="62" r="62" fill="white"/>
<mask id="mask0_8_121" style="mask-type:alpha" maskUnits="userSpaceOnUse" x="0" y="0" width="124" height="124">
<circle cx="62" cy="62" r="62" fill="#D9D9D9"/>
</mask>
<g mask="url(#mask0_8_121)">
<path opacity="0.4" d="M75.8487 26.0857V29.4985C76.9168 36.4409 77.7838 42.2276 78.4497 46.8565L78.5729 47.7106C79.5945 54.8583 80.1047 59.0678 80.1047 60.3391C80.1047 63.5184 73.3429 65.5226 69.4544 65.5226C69.1042 65.5226 68.6242 65.527 68.0405 65.5334L69.3971 75.8129L44.4308 74.5665L45.901 58.8992L45.9291 58.9068C46.3983 53.3719 47.2912 43.5691 48.6079 29.4985L75.8487 26.0857Z" fill="#B45EF8"/>
<path d="M77.6724 11L78.9772 20.1066C78.9772 20.1066 79.842 30.212 70.1668 32.5341C61.5651 34.5988 55.6184 34.0961 54.4033 33.9589L54.2919 33.9459C54.2667 33.9428 54.2415 33.9395 54.2163 33.9361L54.1784 33.9307H54.1741L52.7482 39.5888L50.9645 48.4057C50.997 48.6759 50.9418 48.9689 50.7959 49.2835C49.7646 49.7375 48.5517 49.37 48.1798 50.9288C47.8933 52.1201 47.849 55.2735 47.8447 56.6907V57.3988L46.5042 57.1858C46.5042 57.1858 45.0254 52.0369 43.4622 46.288L43.2579 45.5345C42.0309 41.0017 40.7888 36.2225 40.1975 33.3773C38.8181 26.7398 38.1511 23.2405 40.8872 20.6233C46.101 15.6333 55.9783 18.0137 62.1164 14.4236C67.4859 11.2821 75.3687 11.0173 77.2551 11H77.6713H77.6724Z" fill="#C793FA"/>
<path d="M12 102.839C12 111.153 16.9544 119.127 25.7732 125.006C34.592 130.885 46.553 134.188 59.0247 134.188C71.4964 134.188 83.4573 130.885 92.2762 125.006C101.095 119.127 106.049 111.153 106.049 102.839C106.049 94.5241 101.095 86.5501 92.2762 80.6709C83.4573 74.7917 71.4964 71.4888 59.0247 71.4888C46.553 71.4888 34.592 74.7917 25.7732 80.6709C16.9544 86.5501 12 94.5241 12 102.839Z" fill="#C69AFF"/>
</g>
</svg>
