<svg width="70" height="22" viewBox="0 0 70 22" fill="none" xmlns="http://www.w3.org/2000/svg">
<rect width="70" height="22" rx="11" fill="#0057FF"/>
<path d="M18.2344 8.5C18.2578 8.24219 18.1953 8.04036 18.0469 7.89453C17.8984 7.74609 17.6484 7.67187 17.2969 7.67187C17.0729 7.67187 16.8854 7.69792 16.7344 7.75C16.5859 7.80208 16.4701 7.8737 16.3867 7.96484C16.306 8.05599 16.2552 8.16146 16.2344 8.28125C16.2109 8.375 16.2122 8.46094 16.2383 8.53906C16.2669 8.61458 16.3203 8.68359 16.3984 8.74609C16.4792 8.80859 16.5846 8.86458 16.7148 8.91406C16.8477 8.96354 17.0052 9.00781 17.1875 9.04687L17.8125 9.1875C18.2396 9.28125 18.5977 9.40495 18.8867 9.55859C19.1784 9.70964 19.4076 9.88932 19.5742 10.0977C19.7409 10.306 19.8503 10.5391 19.9023 10.7969C19.957 11.0547 19.9583 11.3359 19.9063 11.6406C19.8177 12.1667 19.6133 12.612 19.293 12.9766C18.9727 13.3411 18.5547 13.6185 18.0391 13.8086C17.5234 13.9987 16.9271 14.0938 16.25 14.0938C15.5573 14.0938 14.9688 13.9909 14.4844 13.7852C14.0026 13.5768 13.6536 13.2591 13.4375 12.832C13.224 12.4023 13.1719 11.8542 13.2813 11.1875H15.3438C15.3125 11.4323 15.3385 11.638 15.4219 11.8047C15.5052 11.9714 15.6393 12.0977 15.8242 12.1836C16.0091 12.2695 16.2396 12.3125 16.5156 12.3125C16.75 12.3125 16.9505 12.2839 17.1172 12.2266C17.2839 12.1693 17.4154 12.0898 17.5117 11.9883C17.6081 11.8867 17.6667 11.7708 17.6875 11.6406C17.7083 11.5208 17.6875 11.4141 17.625 11.3203C17.5625 11.2266 17.4492 11.1419 17.2852 11.0664C17.1211 10.9909 16.8958 10.9219 16.6094 10.8594L15.8438 10.6875C15.1641 10.5312 14.651 10.2734 14.3047 9.91406C13.9583 9.55469 13.8359 9.0625 13.9375 8.4375C14.0208 7.92708 14.2305 7.48177 14.5664 7.10156C14.9049 6.71875 15.3346 6.42187 15.8555 6.21094C16.3789 5.9974 16.9583 5.89062 17.5938 5.89062C18.2396 5.89062 18.7799 5.9987 19.2148 6.21484C19.6523 6.43099 19.9661 6.73437 20.1563 7.125C20.349 7.51562 20.401 7.97396 20.3125 8.5H18.2344ZM20.373 14L21.373 8H23.5293L22.5293 14H20.373ZM22.5449 7.375C22.2533 7.375 22.0176 7.27865 21.8379 7.08594C21.6582 6.89062 21.5918 6.65885 21.6387 6.39062C21.6855 6.11719 21.8288 5.88542 22.0684 5.69531C22.3079 5.5026 22.5736 5.40625 22.8652 5.40625C23.1595 5.40625 23.3939 5.5026 23.5684 5.69531C23.7428 5.88542 23.8079 6.11719 23.7637 6.39062C23.722 6.65885 23.5814 6.89062 23.3418 7.08594C23.1048 7.27865 22.8392 7.375 22.5449 7.375ZM26.1436 16.375C25.5394 16.375 25.0368 16.2891 24.6357 16.1172C24.2373 15.9479 23.943 15.7135 23.7529 15.4141C23.5654 15.1172 23.4873 14.776 23.5186 14.3906H25.5967C25.6019 14.5208 25.6396 14.625 25.71 14.7031C25.7803 14.7813 25.8779 14.8372 26.0029 14.8711C26.1279 14.9049 26.2738 14.9219 26.4404 14.9219C26.7217 14.9219 26.9652 14.8529 27.1709 14.7148C27.3766 14.5794 27.5029 14.3359 27.5498 13.9844L27.7217 12.9688H27.6592C27.5498 13.1719 27.4027 13.3451 27.2178 13.4883C27.0329 13.6289 26.8206 13.737 26.5811 13.8125C26.3415 13.8854 26.0863 13.9219 25.8154 13.9219C25.3883 13.9219 25.012 13.8229 24.6865 13.625C24.3636 13.4271 24.1292 13.1133 23.9834 12.6836C23.8402 12.2539 23.8258 11.6927 23.9404 11C24.0602 10.276 24.2712 9.6875 24.5732 9.23437C24.8753 8.78125 25.223 8.44922 25.6162 8.23828C26.0094 8.02734 26.404 7.92188 26.7998 7.92188C27.0967 7.92188 27.348 7.97396 27.5537 8.07812C27.7594 8.17969 27.9235 8.31641 28.0459 8.48828C28.1683 8.65755 28.2529 8.84375 28.2998 9.04687H28.3467L28.5186 8H30.6748L29.6748 13.9844C29.5967 14.4948 29.3975 14.9271 29.0771 15.2813C28.7594 15.638 28.348 15.9089 27.8428 16.0938C27.3402 16.2813 26.7738 16.375 26.1436 16.375ZM26.8623 12.3906C27.0602 12.3906 27.2399 12.3359 27.4014 12.2266C27.5628 12.1146 27.6995 11.9557 27.8115 11.75C27.9235 11.5417 28.0029 11.2917 28.0498 11C28.0967 10.7031 28.0993 10.4492 28.0576 10.2383C28.016 10.0247 27.9339 9.86198 27.8115 9.75C27.6891 9.63542 27.529 9.57812 27.3311 9.57812C27.1331 9.57812 26.9548 9.63542 26.7959 9.75C26.637 9.86198 26.5029 10.0247 26.3936 10.2383C26.2842 10.4492 26.2061 10.7031 26.1592 11C26.1123 11.2969 26.1084 11.5495 26.1475 11.7578C26.1865 11.9635 26.266 12.1211 26.3857 12.2305C26.5055 12.3372 26.6644 12.3906 26.8623 12.3906ZM33.5059 10.625L32.9434 14H30.7871L31.7871 8H33.834L33.6465 9.14062H33.709C33.8991 8.75781 34.1764 8.45964 34.541 8.24609C34.9082 8.02995 35.3132 7.92188 35.7559 7.92188C36.1803 7.92188 36.5332 8.01823 36.8145 8.21094C37.0957 8.40365 37.2949 8.66927 37.4121 9.00781C37.5293 9.34635 37.5501 9.73437 37.4746 10.1719L36.834 14H34.6777L35.2402 10.625C35.2897 10.3281 35.2533 10.0951 35.1309 9.92578C35.0111 9.75651 34.8132 9.67188 34.5371 9.67188C34.3626 9.67188 34.2025 9.71094 34.0566 9.78906C33.9134 9.86458 33.7936 9.97396 33.6973 10.1172C33.6035 10.2578 33.5397 10.4271 33.5059 10.625ZM42.9492 14.1094C42.2982 14.1094 41.7617 13.9805 41.3398 13.7227C40.9206 13.4622 40.6263 13.1003 40.457 12.6367C40.2878 12.1706 40.2539 11.6302 40.3555 11.0156C40.457 10.401 40.6693 9.86198 40.9922 9.39844C41.3151 8.93229 41.7305 8.57031 42.2383 8.3125C42.7461 8.05208 43.3268 7.92188 43.9805 7.92188C44.6289 7.92188 45.1628 8.05208 45.582 8.3125C46.0039 8.57031 46.2995 8.93229 46.4687 9.39844C46.6406 9.86198 46.6758 10.401 46.5742 11.0156C46.4727 11.6302 46.2591 12.1706 45.9336 12.6367C45.6081 13.1003 45.1914 13.4622 44.6836 13.7227C44.1784 13.9805 43.6003 14.1094 42.9492 14.1094ZM43.2148 12.5156C43.4023 12.5156 43.5729 12.4544 43.7266 12.332C43.8828 12.2096 44.0156 12.0352 44.125 11.8086C44.237 11.582 44.319 11.3125 44.3711 11C44.4232 10.6849 44.431 10.4154 44.3945 10.1914C44.3581 9.96484 44.2826 9.79036 44.168 9.66797C44.0534 9.54557 43.9023 9.48437 43.7148 9.48437C43.5273 9.48437 43.3555 9.54557 43.1992 9.66797C43.043 9.79036 42.9102 9.96484 42.8008 10.1914C42.6914 10.4154 42.6107 10.6849 42.5586 11C42.5065 11.3125 42.4974 11.582 42.5313 11.8086C42.5677 12.0352 42.6432 12.2096 42.7578 12.332C42.875 12.4544 43.0273 12.5156 43.2148 12.5156ZM51.2773 11.375L51.8398 8H53.9961L52.9961 14H50.9492L51.1367 12.8594H51.0742C50.8893 13.2422 50.6133 13.5417 50.2461 13.7578C49.8815 13.9714 49.4753 14.0781 49.0273 14.0781C48.6081 14.0781 48.2578 13.9818 47.9766 13.7891C47.6953 13.5964 47.4961 13.3307 47.3789 12.9922C47.2617 12.6536 47.2383 12.2656 47.3086 11.8281L47.9492 8H50.1055L49.543 11.375C49.4987 11.6719 49.5365 11.9049 49.6563 12.0742C49.7786 12.2435 49.9753 12.3281 50.2461 12.3281C50.4258 12.3281 50.5872 12.2904 50.7305 12.2148C50.8763 12.1367 50.9961 12.0273 51.0898 11.8867C51.1862 11.7435 51.2487 11.5729 51.2773 11.375ZM58.6709 8L58.4053 9.5625H54.4521L54.7178 8H58.6709ZM55.7178 6.5625H57.874L56.96 12.0703C56.9469 12.1536 56.9495 12.224 56.9678 12.2812C56.986 12.3359 57.0225 12.3776 57.0771 12.4062C57.1344 12.4323 57.21 12.4453 57.3037 12.4453C57.3662 12.4453 57.443 12.4375 57.5342 12.4219C57.6253 12.4036 57.6943 12.3906 57.7412 12.3828L57.8037 13.8984C57.6943 13.9297 57.5472 13.9648 57.3623 14.0039C57.18 14.0456 56.9678 14.0729 56.7256 14.0859C56.2204 14.1094 55.8089 14.056 55.4912 13.9258C55.1761 13.7956 54.9574 13.5924 54.835 13.3164C54.7152 13.0378 54.6943 12.6901 54.7725 12.2734L55.7178 6.5625Z" fill="white"/>
</svg>
