<svg width="16" height="16" viewBox="0 0 16 16" fill="none" xmlns="http://www.w3.org/2000/svg">
<path d="M8.23823 3.1913C10.0178 3.1913 11.7989 3.20251 13.5785 3.18651C14.5218 3.17852 14.9679 3.58463 14.9583 4.55355C14.9359 6.73284 14.9647 8.9121 14.9455 11.0914C14.9343 12.3129 14.4467 12.767 13.206 12.7686C9.79075 12.7734 6.37714 12.7734 2.96192 12.7654C1.74837 12.7622 1.01129 12.0347 1.00489 10.834C0.9937 8.87213 0.996903 6.9103 1.0017 4.95009C1.00489 3.67737 1.47497 3.20251 2.78925 3.18971C4.60557 3.17212 6.4219 3.18491 8.23823 3.18491V3.19132V3.1913ZM8.09433 11.9196C9.80194 11.9196 11.5111 11.8988 13.2187 11.9292C13.8663 11.9404 14.1285 11.7357 14.1141 11.0594C14.0789 9.42534 14.1093 7.78809 14.0933 6.15245C14.0917 5.88541 14.2404 5.51768 13.8983 5.37379C13.5865 5.24268 13.3882 5.53207 13.1628 5.71274C11.6486 6.92149 10.1057 8.09668 8.61556 9.33421C8.12311 9.74352 7.80973 9.72913 7.33006 9.33262C5.81272 8.07429 4.25062 6.87193 2.7205 5.62801C2.51584 5.46173 2.32397 5.25707 2.06975 5.32901C1.74037 5.42335 1.8635 5.75432 1.86189 5.98615C1.8507 7.54826 1.88267 9.11196 1.8507 10.6741C1.83311 11.5566 2.21845 11.9292 3.08023 11.9212C4.74947 11.9084 6.4219 11.918 8.09433 11.9196ZM2.18007 4.10427C2.49025 4.39048 2.58618 4.4912 2.69492 4.57755C3.64625 5.33221 4.58959 6.09648 5.55211 6.83355C8.04956 8.74743 8.05595 8.74743 10.5007 6.79999C11.5383 5.97337 12.5552 5.12276 13.8007 4.10268C9.80993 4.10427 6.1357 4.10427 2.18007 4.10427Z" fill="#939393"/>
</svg>
