<svg width="29" height="28" viewBox="0 0 29 28" fill="none" xmlns="http://www.w3.org/2000/svg">
<path d="M28.5634 10.8193C28.3919 9.91284 27.8359 9.32668 27.1238 9.32668H27.0004C25.0762 9.32668 23.5112 7.76167 23.5112 5.83698C23.5112 5.22895 23.8029 4.53567 23.8142 4.50811C24.1692 3.70927 23.8968 2.73034 23.1786 2.22791L19.568 0.217552L19.515 0.191578C18.7927 -0.121662 17.804 0.0788302 17.2654 0.639942C16.8757 1.04193 15.532 2.18815 14.5067 2.18815C13.468 2.18815 12.1213 1.01894 11.7296 0.609327C11.1919 0.0441137 10.2135 -0.168071 9.48303 0.144629L5.7439 2.19326L5.68778 2.22898C4.96953 2.72941 4.69611 3.7083 5.04914 4.50408C5.06134 4.53319 5.35418 5.22082 5.35418 5.83701C5.35418 7.76171 3.78913 9.32672 1.86501 9.32672H1.71913C1.02944 9.32672 0.473403 9.91284 0.302015 10.8193C0.289244 10.8831 0 12.417 0 13.6469C0 14.8752 0.289244 16.4086 0.302015 16.4719C0.473403 17.3789 1.02944 17.9656 1.74154 17.9656H1.86501C3.78913 17.9656 5.35418 19.5306 5.35418 21.4547C5.35418 22.0669 5.06137 22.7576 5.05015 22.7841C4.69615 23.5845 4.96755 24.5619 5.68371 25.0618L9.22594 27.0492L9.28002 27.0737C10.0126 27.3961 11.0032 27.1859 11.5388 26.6003C12.0336 26.0657 13.3742 24.9556 14.3587 24.9556C15.4258 24.9556 16.8001 26.1983 17.196 26.6349C17.5612 27.0349 18.1224 27.2757 18.6967 27.2757C18.965 27.2757 19.2191 27.2226 19.4517 27.1227L23.1245 25.0986L23.1786 25.0638C23.8968 24.5619 24.1702 23.5845 23.8163 22.7882C23.804 22.7586 23.5112 22.0709 23.5112 21.4548C23.5112 19.5307 25.0763 17.9656 27.0004 17.9656H27.1443C27.8349 17.9656 28.392 17.379 28.5634 16.4719C28.5756 16.4087 28.8654 14.8753 28.8654 13.647C28.8654 12.417 28.5756 10.8831 28.5634 10.8193ZM26.7719 13.6469C26.7719 14.4416 26.6137 15.4629 26.5413 15.8894C23.655 16.126 21.4177 18.5379 21.4177 21.4547C21.4177 22.278 21.6789 23.0667 21.8177 23.4294L18.6845 25.1597C18.5304 24.9985 18.0754 24.5394 17.4562 24.0782C16.3686 23.2722 15.3259 22.8605 14.3587 22.8605C13.3997 22.8605 12.3652 23.262 11.2827 24.0578C10.6665 24.5067 10.2176 24.9536 10.0605 25.1188L7.04672 23.4314C7.19365 23.0503 7.44771 22.2719 7.44771 21.4547C7.44771 18.5379 5.21035 16.126 2.32514 15.8894C2.25168 15.4629 2.09353 14.4417 2.09353 13.6469C2.09353 12.8506 2.25168 11.8288 2.32514 11.4024C5.21035 11.1662 7.44771 8.75385 7.44771 5.83701C7.44771 5.01828 7.18652 4.22711 7.04777 3.8649L10.2584 2.10041C10.3982 2.24021 10.8563 2.68857 11.4827 3.13442C12.5499 3.89602 13.5661 4.28168 14.5067 4.28168C15.4381 4.28168 16.4471 3.90318 17.5072 3.15636C18.1387 2.71257 18.5958 2.27032 18.7284 2.14534L21.8186 3.86185C21.6789 4.222 21.4176 5.01062 21.4176 5.83701C21.4176 8.75385 23.655 11.1662 26.5413 11.4024C26.6137 11.8298 26.7719 12.8557 26.7719 13.6469Z" fill="#0057FF"/>
<path d="M14.3699 8.49207C11.5388 8.49207 9.23511 10.7958 9.23511 13.6269C9.23511 16.4585 11.5388 18.7612 14.3699 18.7612C17.201 18.7612 19.5047 16.4585 19.5047 13.6269C19.5047 10.7958 17.201 8.49207 14.3699 8.49207ZM17.4112 13.6269C17.4112 15.3036 16.0472 16.6676 14.3699 16.6676C12.6927 16.6676 11.3296 15.3036 11.3296 13.6269C11.3296 11.9512 12.6927 10.5866 14.3699 10.5866C16.0472 10.5866 17.4112 11.9512 17.4112 13.6269Z" fill="#0057FF"/>
</svg>
